{"title":"Oz The Great And Powerful (1080p-10bit)-CRF16","uid":8748118,"size":6986906722,"categoryP":"video","categoryS":"hd___movies","magnet":"?xt=urn:btih:e2115729092cff978e90bc29a13462d2827bcf78&amp;dn=Oz+The+Great+And+Powerful+%281080p-10bit%29-CRF16&amp;tr=udp%3A%2F%2Ftracker.openbittorrent.com%3A80&amp;tr=udp%3A%2F%2Fopen.demonii.com%3A1337&amp;tr=udp%3A%2F%2Ftracker.coppersurfer.tk%3A6969&amp;tr=udp%3A%2F%2Fexodus.desync.com%3A6969","seeders":2,"leechers":0,"uploader":"AV_dude","files":1,"time":1374975365,"description":"Will play in any recent build of Media Player Classic Home Cinema. \n\nGeneral \nUnique ID : 219581277064345687227257381960729414804 (0xA531D0CFE9BD8D5284EA1926AAEACC94) \nComplete name : H:OUTOz The Great And Powerful (1080p-10bit).mkv \nFormat : Matroska \nFormat version : Version 4 / Version 2 \nFile size : 6.51 GiB \nDuration : 2h 10mn \nOverall bit rate mode : Variable \nOverall bit rate : 7 139 Kbps \nEncoded date : UTC 2013-07-13 20:41:27 \nWriting application : mkvmerge v6.3.0 ('You can't stop me!') built on Jun 28 2013 20:09:41 \nWriting library : libebml v1.3.0 + libmatroska v1.4.0 \nAttachment : Yes \n\nVideo \nID : 1 \nFormat : AVC \nFormat/Info : Advanced Video Codec \nFormat profile : High &lt;a class=&quot;__cf_email__&quot; href=&quot;/cdn-cgi/l/email-protection&quot; data-cfemail=&quot;efdedfafa3dbc1df&quot;&gt;[email&amp;#160;protected]&lt;/a&gt;&lt;script cf-hash='f9e31' type=&quot;text/javascript&quot;&gt;\n/* &lt;![CDATA[ */!function(){try{var t=&quot;currentScript&quot;in document?document.currentScript:function(){for(var t=document.getElementsByTagName(&quot;script&quot;),e=t.length;e--;)if(t[e].getAttribute(&quot;cf-hash&quot;))return t[e]}();if(t&amp;&amp;t.previousSibling){var e,r,n,i,c=t.previousSibling,a=c.getAttribute(&quot;data-cfemail&quot;);if(a){for(e=&quot;&quot;,r=parseInt(a.substr(0,2),16),n=2;a.length-n;n+=2)i=parseInt(a.substr(n,2),16)^r,e+=String.fromCharCode(i);e=document.createTextNode(e),c.parentNode.replaceChild(e,c)}}}catch(u){}}();/* ]]&gt; */&lt;/script&gt; \nFormat settings, CABAC : Yes \nFormat settings, ReFrames : 4 frames \nCodec ID : V_MPEG4/ISO/AVC \nDuration : 2h 10mn \nBit rate : 6 117 Kbps \nWidth : 1 920 pixels \nHeight : 800 pixels \nDisplay aspect ratio : 2.40:1 \nFrame rate mode : Constant \nFrame rate : 23.976 fps \nColor space : YUV \nChroma subsampling : 4:2:0 \nBit depth : 10 bits \nScan type : Progressive \nBits/(Pixel*Frame) : 0.166 \nStream size : 5.58 GiB (86%) \nWriting library : x264 core 136 r2348+704+51 d1baef6 tMod [10-bit@all X86_64] \nEncoding settings : cabac=1 // deblock=1:0:0 / analyse=0x3:0x133 / me=hex / subme=7 / psy=1 / fade_compensate=0.00 / psy_rd=1.00:0.00 // me_range=16 / chroma_me=1 / trellis=2 / 8x8dct=1 / cqm=0 / deadzone=21,11 / fast_pskip=1 / chroma_qp_offset=-2 / threads=12 / lookahead_threads=3 / sliced_threads=0 / nr=0 / decimate=1 / interlaced=0 / bluray_compat=0 / constrained_intra=0 / fgo=0 / bframes=4 / b_pyramid=2 / b_adapt=2 / b_bias=0 / direct=3 / weightb=1 / open_gop=0 / weightp=2 / keyint=240 / keyint_min=23 / scenecut=40 / intra_refresh=0 / rc_lookahead=120 / rc=crf / mbtree=1 / crf=16.0000 / qcomp=0.60 / qpmin=0:0:0 / qpmax=81:81:81 / qpstep=4 / ip_ratio=1.40 / aq=1:1.00 / aq-sensitivity=10.00 / aq-factor=1.00:1.00:1.00 / aq2=0 / aq3=0 \nLanguage : English \nDefault : Yes \nForced : No \n\nAudio \nID : 2 \nFormat : Vorbis \nFormat settings, Floor : 1 \nCodec ID : A_VORBIS \nDuration : 2h 10mn \nBit rate mode : Variable \nBit rate : 880 Kbps \nChannel(s) : 8 channels \nSampling rate : 48.0 KHz \nCompression mode : Lossy \nStream size : 821 MiB (12%) \nWriting library : libVorbis (Omnipresent) (20120203 (Omnipresent)) \nDefault : Yes \nForced : No \n\nText \nID : 3 \nFormat : PGS \nMuxing mode : zlib \nCodec ID : S_HDMV/PGS \nCodec ID/Info : The same subtitle format used on BDs/HD-DVDs \nDefault : Yes \nForced : No \n\nMenu \n00:00:00.000 : en:Chapter 01 \n00:02:37.699 : en:Chapter 02 \n00:06:16.959 : en:Chapter 03 \n00:09:57.555 : en:Chapter 04 \n00:11:32.692 : en:Chapter 05 \n00:15:20.753 : en:Chapter 06 \n00:17:47.191 : en:Chapter 07 \n00:20:29.478 : en:Chapter 08 \n00:24:01.982 : en:Chapter 09 \n00:24:49.779 : en:Chapter 10 \n00:27:01.661 : en:Chapter 11 \n00:29:37.358 : en:Chapter 12 \n00:32:43.419 : en:Chapter 13 \n00:34:30.193 : en:Chapter 14 \n00:37:22.657 : en:Chapter 15 \n00:38:57.376 : en:Chapter 16 \n00:40:39.145 : en:Chapter 17 \n00:42:09.944 : en:Chapter 18 \n00:42:52.444 : en:Chapter 19 \n00:45:33.480 : en:Chapter 20 \n00:47:22.840 : en:Chapter 21 \n00:48:32.409 : en:Chapter 22 \n00:53:29.831 : en:Chapter 23 \n00:55:22.652 : en:Chapter 24 \n00:57:15.932 : en:Chapter 25 \n00:59:10.838 : en:Chapter 26 \n01:02:05.263 : en:Chapter 27 \n01:05:33.220 : en:Chapter 28 \n01:06:21.102 : en:Chapter 29 \n01:09:55.774 : en:Chapter 30 \n01:12:20.836 : en:Chapter 31 \n01:15:37.783 : en:Chapter 32 \n01:18:20.320 : en:Chapter 33 \n01:19:47.783 : en:Chapter 34 \n01:21:27.883 : en:Chapter 35 \n01:26:16.171 : en:Chapter 36 \n01:28:08.783 : en:Chapter 37 \n01:30:33.219 : en:Chapter 38 \n01:34:24.116 : en:Chapter 39 \n01:36:57.436 : en:Chapter 40 \n01:37:35.975 : en:Chapter 41 \n01:41:30.876 : en:Chapter 42 \n01:42:30.394 : en:Chapter 43 \n01:45:51.762 : en:Chapter 44 \n01:48:33.423 : en:Chapter 45 \n01:51:23.802 : en:Chapter 46 \n01:54:26.317 : en:Chapter 47 \n01:55:54.072 : en:Chapter 48 \n01:57:58.404 : en:Chapter 49 \n01:59:34.417 : en:Chapter 50 \n02:02:49.570 : en:Chapter 51 \n02:04:32.756 : en:Chapter 52 \n\n","torrent":{"xt":"urn:btih:e2115729092cff978e90bc29a13462d2827bcf78","amp;dn":"Oz+The+Great+And+Powerful+%281080p-10bit%29-CRF16","amp;tr":["udp%3A%2F%2Ftracker.openbittorrent.com%3A80","udp%3A%2F%2Fopen.demonii.com%3A1337","udp%3A%2F%2Ftracker.coppersurfer.tk%3A6969","udp%3A%2F%2Fexodus.desync.com%3A6969"],"infoHash":"e2115729092cff978e90bc29a13462d2827bcf78","infoHashBuffer":{"type":"Buffer","data":[226,17,87,41,9,44,255,151,142,144,188,41,161,52,98,210,130,123,207,120]},"announce":[],"urlList":[]}}